<svg width="60" height="60" viewBox="0 0 60 60" fill="none" xmlns="http://www.w3.org/2000/svg">
<g id="cloche">
<path id="Icon" d="M30 15C18.9543 15 10 23.1818 10 34.0909C10 38.065 10.9739 41.7908 12.6756 45M30 15C41.0457 15 50 23.1818 50 34.0909C50 38.065 49.0261 41.7908 47.3244 45M30 15C32.0711 15 33.75 13.3211 33.75 11.25C33.75 9.17893 32.0711 7.5 30 7.5C27.9289 7.5 26.25 9.17893 26.25 11.25C26.25 13.3211 27.9289 15 30 15ZM30 22.5C36.25 22.5 40 25 42.5 30M11.25 52.5H48.75C50.8211 52.5 52.5 50.8211 52.5 48.75C52.5 46.6789 50.8211 45 48.75 45H11.25C9.17893 45 7.5 46.6789 7.5 48.75C7.5 50.8211 9.17893 52.5 11.25 52.5Z" stroke="#AB8C6F" stroke-width="2" stroke-linecap="round" stroke-linejoin="round"/>
</g>
</svg>
