<svg width="60" height="60" viewBox="0 0 60 60" fill="none" xmlns="http://www.w3.org/2000/svg">
<g id="vuesax/linear/cake">
<g id="cake">
<path id="Vector" d="M5 55H55" stroke="#AB8C6F" stroke-width="2" stroke-linecap="round" stroke-linejoin="round"/>
<path id="Vector_2" d="M7.77539 55V32.5C7.77539 28.35 11.5004 25 16.1004 25H43.8754C48.4754 25 52.2004 28.35 52.2004 32.5V55" stroke="#AB8C6F" stroke-width="2" stroke-linecap="round" stroke-linejoin="round"/>
<path id="Vector_3" d="M13.9004 25V17.925C13.9004 14.925 16.6004 12.5 19.9504 12.5H40.0754C43.4004 12.5 46.1004 14.925 46.1004 17.925V25" stroke="#AB8C6F" stroke-width="2" stroke-linecap="round" stroke-linejoin="round"/>
<path id="Vector_4" d="M20 10V5.755C20 3.955 21.677 2.5 23.7578 2.5H36.2578C38.323 2.5 40 3.955 40 5.755V10" stroke="#AB8C6F" stroke-width="2" stroke-linecap="round" stroke-linejoin="round"/>
<path id="Vector_5" d="M8.82422 34.95L9.74922 34.975C11.5992 35 13.0742 36.5 13.0742 38.35V39.175C13.0742 41.025 14.5742 42.55 16.4492 42.55C18.2992 42.55 19.8242 41.05 19.8242 39.175V38.4C19.8242 36.55 21.3242 35.025 23.1992 35.025C25.0492 35.025 26.5742 36.525 26.5742 38.4V39.175C26.5742 41.025 28.0742 42.55 29.9492 42.55C31.7992 42.55 33.3242 41.05 33.3242 39.175V38.4C33.3242 36.55 34.8242 35.025 36.6992 35.025C38.5492 35.025 40.0742 36.525 40.0742 38.4V39.175C40.0742 41.025 41.5742 42.55 43.4492 42.55C45.2992 42.55 46.8242 41.05 46.8242 39.175V38.4C46.8242 36.55 48.3242 35.025 50.1992 35.025H51.3242" stroke="#AB8C6F" stroke-width="2" stroke-linecap="round" stroke-linejoin="round"/>
</g>
</g>
</svg>
