<svg width="60" height="60" viewBox="0 0 60 60" fill="none" xmlns="http://www.w3.org/2000/svg">
<g id="star">
<path id="Icon" d="M28.1723 9.09819C28.7511 7.79974 29.0405 7.15052 29.4434 6.95058C29.7935 6.77689 30.2046 6.77689 30.5546 6.95058C30.9576 7.15052 31.247 7.79974 31.8258 9.09819L36.4359 19.4405C36.607 19.8244 36.6925 20.0163 36.8249 20.1633C36.942 20.2933 37.0852 20.3973 37.2451 20.4685C37.4258 20.549 37.6347 20.5711 38.0527 20.6152L49.3134 21.8037C50.7272 21.9529 51.434 22.0275 51.7487 22.349C52.0221 22.6282 52.1491 23.0192 52.0921 23.4058C52.0265 23.8508 51.4984 24.3267 50.4424 25.2784L42.0309 32.8588C41.7187 33.1401 41.5626 33.2808 41.4637 33.4521C41.3762 33.6037 41.3215 33.772 41.3032 33.9461C41.2825 34.1428 41.3261 34.3483 41.4133 34.7595L43.7627 45.8363C44.0577 47.227 44.2052 47.9223 43.9967 48.3209C43.8156 48.6672 43.483 48.9088 43.0977 48.9741C42.6542 49.0492 42.0384 48.694 40.807 47.9838L30.9983 42.3264C30.6342 42.1164 30.4522 42.0114 30.2587 41.9704C30.0875 41.934 29.9106 41.934 29.7394 41.9704C29.5459 42.0114 29.3638 42.1164 28.9998 42.3264L19.1911 47.9838C17.9596 48.694 17.3439 49.0492 16.9004 48.9741C16.5151 48.9088 16.1825 48.6672 16.0014 48.3209C15.7929 47.9223 15.9404 47.227 16.2354 45.8363L18.5848 34.7595C18.672 34.3483 18.7156 34.1428 18.6949 33.9461C18.6765 33.772 18.6219 33.6037 18.5344 33.4521C18.4355 33.2808 18.2794 33.1401 17.9672 32.8588L9.55566 25.2784C8.49962 24.3267 7.97161 23.8508 7.90597 23.4058C7.84895 23.0192 7.976 22.6282 8.24935 22.349C8.56403 22.0275 9.2709 21.9529 10.6847 21.8037L21.9454 20.6152C22.3633 20.5711 22.5723 20.549 22.753 20.4685C22.9129 20.3973 23.056 20.2933 23.1732 20.1633C23.3055 20.0163 23.3911 19.8244 23.5622 19.4405L28.1723 9.09819Z" stroke="#AB8C6F" stroke-width="2" stroke-linecap="round" stroke-linejoin="round"/>
</g>
</svg>
