<svg width="60" height="60" viewBox="0 0 60 60" fill="none" xmlns="http://www.w3.org/2000/svg">
<g id="vuesax/linear/percentage-square">
<path id="Vector" d="M22.5 5H37.5C50 5 55 10 55 22.5V37.5C55 50 50 55 37.5 55H22.5C10 55 5 50 5 37.5V22.5C5 10 10 5 22.5 5Z" stroke="#AB8C6F" stroke-width="2" stroke-linecap="round" stroke-linejoin="round"/>
<path id="Vector_2" d="M21.4258 38.1749L37.7757 21.825" stroke="#AB8C6F" stroke-width="2" stroke-linecap="round" stroke-linejoin="round"/>
<path id="Vector_3" d="M22.45 25.9249C24.1483 25.9249 25.525 24.5482 25.525 22.8499C25.525 21.1517 24.1483 19.7749 22.45 19.7749C20.7518 19.7749 19.375 21.1517 19.375 22.8499C19.375 24.5482 20.7518 25.9249 22.45 25.9249Z" stroke="#AB8C6F" stroke-width="2" stroke-linecap="round" stroke-linejoin="round"/>
<path id="Vector_4" d="M38.7996 40.2249C40.4978 40.2249 41.8746 38.8482 41.8746 37.1499C41.8746 35.4516 40.4978 34.075 38.7996 34.075C37.1013 34.075 35.7246 35.4516 35.7246 37.1499C35.7246 38.8482 37.1013 40.2249 38.7996 40.2249Z" stroke="#AB8C6F" stroke-width="2" stroke-linecap="round" stroke-linejoin="round"/>
</g>
</svg>
