<svg width="61" height="60" viewBox="0 0 61 60" fill="none" xmlns="http://www.w3.org/2000/svg">
<g id="vuesax/linear/car">
<g id="car">
<path id="Vector" d="M39.607 7.07501H22.057C15.832 7.07501 14.457 10.175 13.657 13.975L10.832 27.5H50.832L48.007 13.975C47.207 10.175 45.832 7.07501 39.607 7.07501Z" stroke="#AB8C6F" stroke-width="2" stroke-linecap="round" stroke-linejoin="round"/>
<path id="Vector_2" d="M55.8078 49.55C56.0828 52.475 53.7328 55 50.7328 55H46.0328C43.3328 55 42.9578 53.85 42.4828 52.425L41.9828 50.925C41.2828 48.875 40.8328 47.5 37.2328 47.5H24.4328C20.8328 47.5 20.3078 49.05 19.6828 50.925L19.1828 52.425C18.7078 53.85 18.3328 55 15.6328 55H10.9328C7.93284 55 5.58284 52.475 5.85784 49.55L7.25784 34.325C7.60784 30.575 8.33284 27.5 14.8828 27.5H46.7828C53.3328 27.5 54.0578 30.575 54.4078 34.325L55.8078 49.55Z" stroke="#AB8C6F" stroke-width="2" stroke-linecap="round" stroke-linejoin="round"/>
<path id="Vector_3" d="M10.832 20H8.33203" stroke="#AB8C6F" stroke-width="2" stroke-linecap="round" stroke-linejoin="round"/>
<path id="Vector_4" d="M53.332 20H50.832" stroke="#AB8C6F" stroke-width="2" stroke-linecap="round" stroke-linejoin="round"/>
<path id="Vector_5" d="M30.832 7.5V12.5" stroke="#AB8C6F" stroke-width="2" stroke-linecap="round" stroke-linejoin="round"/>
<path id="Vector_6" d="M27.082 12.5H34.582" stroke="#AB8C6F" stroke-width="2" stroke-linecap="round" stroke-linejoin="round"/>
<path id="Vector_7" d="M15.832 37.5H23.332" stroke="#AB8C6F" stroke-width="2" stroke-linecap="round" stroke-linejoin="round"/>
<path id="Vector_8" d="M38.332 37.5H45.832" stroke="#AB8C6F" stroke-width="2" stroke-linecap="round" stroke-linejoin="round"/>
</g>
</g>
</svg>
