<svg width="61" height="60" viewBox="0 0 61 60" fill="none" xmlns="http://www.w3.org/2000/svg">
<g id="vuesax/linear/note">
<g id="note">
<path id="Vector" d="M54.6504 26.1L52.2004 36.55C50.1004 45.575 45.9504 49.225 38.1504 48.475C36.9004 48.375 35.5504 48.15 34.1004 47.8L29.9004 46.8C19.4754 44.325 16.2504 39.175 18.7004 28.725L21.1504 18.25C21.6504 16.125 22.2504 14.275 23.0004 12.75C25.9254 6.70002 30.9004 5.07502 39.2504 7.05002L43.4254 8.02502C53.9004 10.475 57.1004 15.65 54.6504 26.1Z" stroke="#AB8C6F" stroke-width="2" stroke-linecap="round" stroke-linejoin="round"/>
<path id="Vector_2" d="M38.1499 48.475C36.5999 49.525 34.6499 50.4 32.2749 51.175L28.3249 52.475C18.3999 55.675 13.1749 53 9.94988 43.075L6.74988 33.2C3.54988 23.275 6.19988 18.025 16.1249 14.825L20.0749 13.525C21.0999 13.2 22.0749 12.925 22.9999 12.75C22.2499 14.275 21.6499 16.125 21.1499 18.25L18.6999 28.725C16.2499 39.175 19.4749 44.325 29.8999 46.8L34.0999 47.8C35.5499 48.15 36.8999 48.375 38.1499 48.475Z" stroke="#AB8C6F" stroke-width="2" stroke-linecap="round" stroke-linejoin="round"/>
</g>
</g>
</svg>
