<svg width="61" height="60" viewBox="0 0 61 60" fill="none" xmlns="http://www.w3.org/2000/svg">
<g id="vuesax/linear/cake">
<g id="cake">
<path id="Vector" d="M5.16797 55H55.168" stroke="#AB8C6F" stroke-width="2" stroke-linecap="round" stroke-linejoin="round"/>
<path id="Vector_2" d="M7.94531 55V32.5C7.94531 28.35 11.6703 25 16.2703 25H44.0453C48.6453 25 52.3703 28.35 52.3703 32.5V55" stroke="#AB8C6F" stroke-width="2" stroke-linecap="round" stroke-linejoin="round"/>
<path id="Vector_3" d="M14.0703 25V17.925C14.0703 14.925 16.7703 12.5 20.1203 12.5H40.2453C43.5703 12.5 46.2703 14.925 46.2703 17.925V25" stroke="#AB8C6F" stroke-width="2" stroke-linecap="round" stroke-linejoin="round"/>
<path id="Vector_4" d="M20.168 10V5.755C20.168 3.955 21.845 2.5 23.9257 2.5H36.4257C38.491 2.5 40.168 3.955 40.168 5.755V10" stroke="#AB8C6F" stroke-width="2" stroke-linecap="round" stroke-linejoin="round"/>
<path id="Vector_5" d="M8.99219 34.95L9.91719 34.975C11.7672 35 13.2422 36.5 13.2422 38.35V39.175C13.2422 41.025 14.7422 42.55 16.6172 42.55C18.4672 42.55 19.9922 41.05 19.9922 39.175V38.4C19.9922 36.55 21.4922 35.025 23.3672 35.025C25.2172 35.025 26.7422 36.525 26.7422 38.4V39.175C26.7422 41.025 28.2422 42.55 30.1172 42.55C31.9672 42.55 33.4922 41.05 33.4922 39.175V38.4C33.4922 36.55 34.9922 35.025 36.8672 35.025C38.7172 35.025 40.2422 36.525 40.2422 38.4V39.175C40.2422 41.025 41.7422 42.55 43.6172 42.55C45.4672 42.55 46.9922 41.05 46.9922 39.175V38.4C46.9922 36.55 48.4922 35.025 50.3672 35.025H51.4922" stroke="#AB8C6F" stroke-width="2" stroke-linecap="round" stroke-linejoin="round"/>
</g>
</g>
</svg>
