<svg width="50" height="50" viewBox="0 0 50 50" fill="none" xmlns="http://www.w3.org/2000/svg">
<circle cx="25" cy="25" r="25" fill="#8ABED1"/>
<path fill-rule="evenodd" clip-rule="evenodd" d="M15.4436 23.7489C21.0808 21.2087 24.8397 19.534 26.7206 18.7249C32.0907 16.4147 33.2065 16.0134 33.9338 16.0001C34.0938 15.9972 34.4514 16.0382 34.6831 16.2327C34.8787 16.3968 34.9326 16.6186 34.9583 16.7743C34.9841 16.93 35.0162 17.2846 34.9907 17.5616C34.6997 20.7241 33.4405 28.3986 32.7999 31.9406C32.5288 33.4394 31.9951 33.9419 31.4784 33.9911C30.3554 34.098 29.5027 33.2235 28.4151 32.4861C26.7132 31.3323 25.7517 30.614 24.0997 29.488C22.1906 28.1868 23.4282 27.4716 24.5162 26.3027C24.801 25.9969 29.7486 21.3423 29.8444 20.92C29.8564 20.8672 29.8675 20.6704 29.7544 20.5664C29.6414 20.4625 29.4745 20.498 29.3541 20.5263C29.1834 20.5664 26.4646 22.425 21.1976 26.1022C20.4259 26.6503 19.7269 26.9174 19.1006 26.9034C18.4102 26.888 17.082 26.4996 16.0947 26.1677C14.8837 25.7606 13.9213 25.5453 14.0051 24.8539C14.0487 24.4937 14.5283 24.1254 15.4436 23.7489Z" fill="white"/>
</svg>
