<svg width="64" height="64" viewBox="0 0 64 64" fill="none" xmlns="http://www.w3.org/2000/svg">
<g id="noun-360-2527847 1">
<g id="Group 33">
<path id="Vector" d="M25.1502 24.5415C25.5612 24.4516 25.9292 24.2242 26.1936 23.897C26.4581 23.5698 26.603 23.1622 26.6047 22.7415C26.6047 21.5045 25.4932 20.589 23.6387 20.589C23.0513 20.5715 22.4676 20.6885 21.9324 20.931C21.3971 21.1736 20.9243 21.5353 20.5502 21.9885L21.6502 23.179C21.8768 22.9271 22.1517 22.7233 22.4586 22.5797C22.7655 22.4361 23.0981 22.3556 23.4367 22.343C24.1467 22.343 24.6162 22.6295 24.6162 23.1105C24.6162 23.569 24.1917 23.832 23.4017 23.821H22.4722V25.471L23.3992 25.4595C24.3952 25.4595 24.7737 25.7095 24.7737 26.2035C24.7737 26.6615 24.3382 26.9935 23.5482 26.9935C23.1685 26.9922 22.7929 26.9156 22.443 26.7683C22.0931 26.6209 21.7759 26.4057 21.5097 26.135L20.3877 27.4285C20.8067 27.8671 21.3144 28.2114 21.877 28.4384C22.4396 28.6653 23.0441 28.7696 23.6502 28.7445C25.5502 28.7445 26.7767 27.7595 26.7767 26.3735C26.7628 25.9261 26.5924 25.4977 26.2952 25.163C25.998 24.8282 25.5928 24.6083 25.1502 24.5415Z" fill="white"/>
<path id="Vector_2" d="M32.6181 23.454C31.9595 23.4535 31.3193 23.6708 30.7971 24.072C30.9691 22.9615 31.5646 22.297 32.4921 22.297C33.0671 22.2973 33.6218 22.5095 34.0501 22.893L34.9546 21.416C34.2485 20.8671 33.3758 20.5761 32.4816 20.5915C30.1816 20.5915 28.7256 22.3095 28.7256 24.805C28.7256 27.1185 29.8361 28.7325 32.1836 28.7325C33.9336 28.7325 35.2751 27.6325 35.2751 25.9735C35.2799 25.6295 35.2135 25.2882 35.0798 24.9712C34.9462 24.6542 34.7483 24.3683 34.4987 24.1316C34.249 23.8948 33.953 23.7124 33.6293 23.5958C33.3057 23.4792 32.9613 23.4309 32.6181 23.454ZM32.0681 27.0725C31.2681 27.0725 30.9231 26.649 30.7966 25.7785C30.9061 25.5477 31.0801 25.3534 31.2975 25.2193C31.515 25.0851 31.7666 25.0168 32.0221 25.0225C32.1726 25.0039 32.3253 25.0161 32.4709 25.0585C32.6165 25.1009 32.752 25.1725 32.869 25.269C32.986 25.3655 33.082 25.4848 33.1514 25.6197C33.2207 25.7546 33.2617 25.9022 33.2721 26.0535C33.2644 26.201 33.2267 26.3454 33.1611 26.4777C33.0955 26.6101 33.0036 26.7276 32.8909 26.8231C32.7782 26.9186 32.6471 26.9899 32.5058 27.0328C32.3645 27.0757 32.2158 27.0892 32.0691 27.0725H32.0681Z" fill="white"/>
<path id="Vector_3" d="M40.9554 20.5916C38.8364 20.5916 37.3364 22.2746 37.3364 24.6561C37.3364 27.0496 38.8364 28.7326 40.9554 28.7326C43.0849 28.7326 44.5739 27.0496 44.5739 24.6561C44.5739 22.2746 43.0849 20.5916 40.9554 20.5916ZM40.9554 26.9581C40.0164 26.9581 39.3519 25.9966 39.3519 24.6581C39.3519 23.3196 40.0164 22.3686 40.9554 22.3686C41.9054 22.3686 42.5694 23.3186 42.5694 24.6581C42.5694 25.9976 41.9059 26.9581 40.9554 26.9581Z" fill="white"/>
<path id="Vector_4" d="M32.481 12.468H31.519C20.2235 12.468 3.14697 17.0095 3.14697 23.855V43.273C3.14697 48.662 10.7535 51.5325 16.244 51.5325C16.5092 51.5325 16.7635 51.4272 16.9511 51.2396C17.1386 51.0521 17.244 50.7977 17.244 50.5325V36.5755C22.0095 35.0267 26.9891 34.2379 32 34.238C37.0076 34.2808 41.9808 35.0694 46.756 36.578V50.5325C46.756 50.7977 46.8613 51.0521 47.0489 51.2396C47.2364 51.4272 47.4908 51.5325 47.756 51.5325C53.2465 51.5325 60.853 48.6625 60.853 43.273V23.855C60.853 17.0095 43.7765 12.468 32.481 12.468ZM15.244 49.5C10.7345 49.193 5.14697 46.8815 5.14697 43.2755V28.2055C5.29297 28.3555 5.44697 28.5015 5.60947 28.646C5.64597 28.6785 5.68397 28.71 5.72097 28.7425C5.91197 28.9092 6.11197 29.0717 6.32097 29.23C6.34947 29.2515 6.37597 29.2735 6.40497 29.2945C6.63297 29.462 6.87447 29.623 7.12447 29.7795C7.17997 29.814 7.23547 29.8485 7.29197 29.8825C7.54597 30.036 7.80897 30.185 8.08447 30.3265C8.12447 30.347 8.16647 30.366 8.20697 30.386C8.46731 30.5163 8.73681 30.6405 9.01547 30.7585C9.06547 30.779 9.11147 30.801 9.16097 30.821C9.46097 30.9445 9.77347 31.0595 10.094 31.1675C10.163 31.191 10.2325 31.213 10.302 31.2355C10.632 31.342 10.9695 31.4425 11.3195 31.531C11.349 31.5385 11.38 31.5445 11.41 31.552C11.7445 31.635 12.0895 31.7085 12.4415 31.774C12.5095 31.787 12.5765 31.8005 12.6455 31.8125C13.0121 31.8772 13.3885 31.9317 13.7745 31.976C13.8525 31.985 13.9315 31.9925 14.01 32.0005C14.413 32.0425 14.822 32.077 15.243 32.096V49.5H15.244ZM32 32.238C26.998 32.2447 22.0249 32.9958 17.244 34.4665V31.12C17.244 30.8548 17.1386 30.6004 16.9511 30.4129C16.7635 30.2254 16.5092 30.12 16.244 30.12C10.8135 30.12 7.28647 28.073 5.86247 25.942C5.42409 25.3318 5.17522 24.6059 5.14697 23.855C5.14697 19.109 20.247 14.468 31.519 14.468H32.481C43.7525 14.468 58.853 19.109 58.853 23.855C58.853 26.4815 54.9965 30.12 47.756 30.12C47.4908 30.12 47.2364 30.2254 47.0489 30.4129C46.8613 30.6004 46.756 30.8548 46.756 31.12V34.47C41.9661 33.0387 36.9989 32.2873 32 32.238ZM58.853 43.273C58.853 46.879 53.265 49.1905 48.756 49.4975V32.1C49.176 32.081 49.5835 32.0465 49.985 32.005C50.0645 31.997 50.1445 31.989 50.223 31.98C50.6073 31.9354 50.9828 31.881 51.3495 31.817C51.4195 31.8045 51.488 31.791 51.557 31.7775C51.907 31.712 52.25 31.639 52.5825 31.5565C52.6135 31.5485 52.646 31.542 52.677 31.5345C53.027 31.446 53.3625 31.346 53.6915 31.2395C53.7625 31.2165 53.833 31.194 53.903 31.17C54.2225 31.062 54.5335 30.9475 54.833 30.8245C54.883 30.8035 54.933 30.7815 54.983 30.7605C55.26 30.6432 55.528 30.5197 55.787 30.39C55.8285 30.3695 55.8715 30.35 55.9125 30.329C56.187 30.188 56.4495 30.0395 56.703 29.8865C56.76 29.852 56.8165 29.817 56.8725 29.782C57.1225 29.6255 57.363 29.465 57.5905 29.298C57.62 29.2765 57.647 29.254 57.676 29.232C57.8863 29.0744 58.0863 28.9124 58.276 28.746C58.3135 28.7135 58.352 28.682 58.3885 28.649C58.5495 28.5045 58.705 28.3585 58.8505 28.2085L58.853 43.273Z" fill="#AB8C6F"/>
</g>
</g>
</svg>
