<svg width="64" height="64" viewBox="0 0 64 64" fill="none" xmlns="http://www.w3.org/2000/svg">
<path d="M25.1531 24.5412C25.5641 24.4513 25.9322 24.224 26.1966 23.8968C26.461 23.5695 26.606 23.1619 26.6076 22.7412C26.6076 21.5042 25.4961 20.5887 23.6416 20.5887C23.0542 20.5712 22.4706 20.6882 21.9353 20.9308C21.4 21.1733 20.9272 21.535 20.5531 21.9882L21.6531 23.1787C21.8797 22.9269 22.1546 22.723 22.4615 22.5794C22.7684 22.4358 23.101 22.3553 23.4396 22.3427C24.1496 22.3427 24.6191 22.6292 24.6191 23.1102C24.6191 23.5687 24.1946 23.8317 23.4046 23.8207H22.4751V25.4707L23.4021 25.4592C24.3981 25.4592 24.7766 25.7092 24.7766 26.2032C24.7766 26.6612 24.3411 26.9932 23.5511 26.9932C23.1715 26.9919 22.7958 26.9154 22.4459 26.768C22.096 26.6207 21.7788 26.4054 21.5126 26.1347L20.3906 27.4282C20.8096 27.8669 21.3174 28.2112 21.8799 28.4381C22.4425 28.665 23.047 28.7694 23.6531 28.7442C25.5531 28.7442 26.7796 27.7592 26.7796 26.3732C26.7657 25.9258 26.5953 25.4975 26.2981 25.1627C26.0009 24.828 25.5957 24.6081 25.1531 24.5412Z" fill="black"/>
<path d="M32.6191 23.4538C31.9605 23.4532 31.3203 23.6705 30.7981 24.0718C30.9701 22.9613 31.5656 22.2968 32.4931 22.2968C33.068 22.297 33.6227 22.5092 34.0511 22.8928L34.9556 21.4158C34.2494 20.8668 33.3768 20.5759 32.4826 20.5913C30.1826 20.5913 28.7266 22.3093 28.7266 24.8048C28.7266 27.1183 29.8371 28.7323 32.1846 28.7323C33.9346 28.7323 35.2761 27.6323 35.2761 25.9733C35.2809 25.6293 35.2144 25.288 35.0808 24.971C34.9472 24.6539 34.7493 24.3681 34.4996 24.1313C34.25 23.8946 33.954 23.7122 33.6303 23.5956C33.3067 23.4789 32.9623 23.4307 32.6191 23.4538ZM32.0691 27.0723C31.2691 27.0723 30.9241 26.6488 30.7976 25.7783C30.9071 25.5474 31.081 25.3532 31.2985 25.219C31.516 25.0849 31.7676 25.0165 32.0231 25.0223C32.1736 25.0036 32.3263 25.0159 32.4719 25.0583C32.6175 25.1006 32.7529 25.1723 32.8699 25.2688C32.9869 25.3653 33.083 25.4846 33.1523 25.6195C33.2216 25.7544 33.2627 25.902 33.2731 26.0533C33.2654 26.2008 33.2276 26.3452 33.1621 26.4775C33.0965 26.6099 33.0046 26.7274 32.8919 26.8228C32.7792 26.9183 32.6481 26.9897 32.5068 27.0326C32.3654 27.0755 32.2168 27.089 32.0701 27.0723H32.0691Z" fill="black"/>
<path d="M40.9588 20.5913C38.8398 20.5913 37.3398 22.2743 37.3398 24.6558C37.3398 27.0493 38.8398 28.7323 40.9588 28.7323C43.0883 28.7323 44.5773 27.0493 44.5773 24.6558C44.5773 22.2743 43.0883 20.5913 40.9588 20.5913ZM40.9588 26.9578C40.0198 26.9578 39.3553 25.9963 39.3553 24.6578C39.3553 23.3193 40.0198 22.3683 40.9588 22.3683C41.9088 22.3683 42.5728 23.3183 42.5728 24.6578C42.5728 25.9973 41.9093 26.9578 40.9588 26.9578Z" fill="black"/>
<path d="M32.4824 12.4678H31.5204C20.2249 12.4678 3.14844 17.0093 3.14844 23.8548V43.2728C3.14844 48.6618 10.7549 51.5323 16.2454 51.5323C16.5107 51.5323 16.765 51.4269 16.9525 51.2394C17.1401 51.0518 17.2454 50.7975 17.2454 50.5323V36.5753C22.0109 35.0265 26.9906 34.2377 32.0014 34.2378C37.009 34.2805 41.9823 35.0692 46.7574 36.5778V50.5323C46.7574 50.7975 46.8628 51.0518 47.0503 51.2394C47.2379 51.4269 47.4922 51.5323 47.7574 51.5323C53.2479 51.5323 60.8544 48.6623 60.8544 43.2728V23.8548C60.8544 17.0093 43.7779 12.4678 32.4824 12.4678ZM15.2454 49.4998C10.7359 49.1928 5.14844 46.8813 5.14844 43.2753V28.2053C5.29444 28.3553 5.44844 28.5013 5.61094 28.6458C5.64744 28.6783 5.68544 28.7098 5.72244 28.7423C5.91344 28.9089 6.11344 29.0714 6.32244 29.2298C6.35094 29.2513 6.37744 29.2733 6.40644 29.2943C6.63444 29.4618 6.87594 29.6228 7.12594 29.7793C7.18144 29.8138 7.23694 29.8483 7.29344 29.8823C7.54744 30.0358 7.81044 30.1848 8.08594 30.3263C8.12594 30.3468 8.16794 30.3658 8.20844 30.3858C8.46877 30.5161 8.73827 30.6403 9.01694 30.7583C9.06694 30.7788 9.11294 30.8008 9.16244 30.8208C9.46244 30.9443 9.77494 31.0593 10.0954 31.1673C10.1644 31.1908 10.2339 31.2128 10.3034 31.2353C10.6334 31.3418 10.9709 31.4423 11.3209 31.5308C11.3504 31.5383 11.3814 31.5443 11.4114 31.5518C11.7459 31.6348 12.0909 31.7083 12.4429 31.7738C12.5109 31.7868 12.5779 31.8003 12.6469 31.8123C13.0136 31.8769 13.3899 31.9314 13.7759 31.9758C13.8539 31.9848 13.9329 31.9923 14.0114 32.0003C14.4144 32.0423 14.8234 32.0768 15.2444 32.0958V49.4998H15.2454ZM32.0014 32.2378C26.9995 32.2445 22.0263 32.9955 17.2454 34.4663V31.1198C17.2454 30.8546 17.1401 30.6002 16.9525 30.4127C16.765 30.2251 16.5107 30.1198 16.2454 30.1198C10.8149 30.1198 7.28794 28.0728 5.86394 25.9418C5.42555 25.3315 5.17669 24.6056 5.14844 23.8548C5.14844 19.1088 20.2484 14.4678 31.5204 14.4678H32.4824C43.7539 14.4678 58.8544 19.1088 58.8544 23.8548C58.8544 26.4813 54.9979 30.1198 47.7574 30.1198C47.4922 30.1198 47.2379 30.2251 47.0503 30.4127C46.8628 30.6002 46.7574 30.8546 46.7574 31.1198V34.4698C41.9676 33.0384 37.0004 32.2871 32.0014 32.2378ZM58.8544 43.2728C58.8544 46.8788 53.2664 49.1903 48.7574 49.4973V32.0998C49.1774 32.0808 49.5849 32.0463 49.9864 32.0048C50.0659 31.9968 50.1459 31.9888 50.2244 31.9798C50.6088 31.9351 50.9843 31.8808 51.3509 31.8168C51.4209 31.8043 51.4894 31.7908 51.5584 31.7773C51.9084 31.7118 52.2514 31.6388 52.5839 31.5563C52.6149 31.5483 52.6474 31.5418 52.6784 31.5343C53.0284 31.4458 53.3639 31.3458 53.6929 31.2393C53.7639 31.2163 53.8344 31.1938 53.9044 31.1698C54.2239 31.0618 54.5349 30.9473 54.8344 30.8243C54.8844 30.8033 54.9344 30.7813 54.9844 30.7603C55.2614 30.6429 55.5294 30.5194 55.7884 30.3898C55.8299 30.3693 55.8729 30.3498 55.9139 30.3288C56.1884 30.1878 56.4509 30.0393 56.7044 29.8863C56.7614 29.8518 56.8179 29.8168 56.8739 29.7818C57.1239 29.6253 57.3644 29.4648 57.5919 29.2978C57.6214 29.2763 57.6484 29.2538 57.6774 29.2318C57.8878 29.0741 58.0878 28.9121 58.2774 28.7458C58.3149 28.7133 58.3534 28.6818 58.3899 28.6488C58.5509 28.5043 58.7064 28.3583 58.8519 28.2083L58.8544 43.2728Z" fill="#8ABED1"/>
</svg>
