<svg width="54" height="54" viewBox="0 0 54 54" fill="none" xmlns="http://www.w3.org/2000/svg">
<g id="pin" clip-path="url(#clip0_403_1194)">
<g id="Layer 2">
<g id="pin_2">
<path id="Vector" d="M27 24.75C28.864 24.75 30.375 23.239 30.375 21.375C30.375 19.511 28.864 18 27 18C25.136 18 23.625 19.511 23.625 21.375C23.625 23.239 25.136 24.75 27 24.75Z" fill="#38332D"/>
<path id="Vector_2" d="M27 4.5C22.2571 4.49976 17.7058 6.37146 14.3353 9.70828C10.9648 13.0451 9.04743 17.5774 9 22.32C9 34.65 24.8625 48.375 25.5375 48.96C25.945 49.3086 26.4637 49.5001 27 49.5001C27.5363 49.5001 28.055 49.3086 28.4625 48.96C29.25 48.375 45 34.65 45 22.32C44.9526 17.5774 43.0352 13.0451 39.6647 9.70828C36.2942 6.37146 31.7429 4.49976 27 4.5ZM27 29.25C25.4425 29.25 23.9199 28.7881 22.6249 27.9228C21.3298 27.0575 20.3205 25.8276 19.7244 24.3886C19.1284 22.9497 18.9725 21.3663 19.2763 19.8387C19.5802 18.3111 20.3302 16.9079 21.4315 15.8065C22.5329 14.7052 23.9361 13.9552 25.4637 13.6513C26.9913 13.3475 28.5747 13.5034 30.0136 14.0994C31.4526 14.6955 32.6825 15.7048 33.5478 16.9999C34.4131 18.2949 34.875 19.8175 34.875 21.375C34.875 23.4636 34.0453 25.4666 32.5685 26.9435C31.0916 28.4203 29.0886 29.25 27 29.25Z" fill="#38332D"/>
</g>
</g>
</g>
<defs>
<clipPath id="clip0_403_1194">
<rect width="54" height="54" fill="white"/>
</clipPath>
</defs>
</svg>
