<svg width="318" height="140" viewBox="0 0 318 140" fill="none" xmlns="http://www.w3.org/2000/svg">
<g clip-path="url(#clip0_511_2780)">
<mask id="mask0_511_2780" style="mask-type:luminance" maskUnits="userSpaceOnUse" x="-99" y="-363" width="595" height="844">
<path d="M495.97 -362.293H-98.1328V480.861H495.97V-362.293Z" fill="white"/>
</mask>
<g mask="url(#mask0_511_2780)">
<path d="M100.363 118.708C99.3525 118.704 98.3528 118.499 97.421 118.107C96.4892 117.715 95.6435 117.142 94.9322 116.422C94.221 115.702 93.658 114.848 93.2756 113.909C92.8931 112.971 92.6986 111.966 92.7032 110.952C92.7078 109.938 92.9114 108.934 93.3023 107.999C93.6932 107.064 94.2639 106.216 94.9816 105.502C95.6994 104.788 96.5503 104.223 97.4856 103.839C98.4209 103.456 99.4224 103.26 100.433 103.265C101.51 103.231 102.583 103.424 103.581 103.831C104.58 104.238 105.483 104.85 106.231 105.629L105.084 106.87C104.482 106.236 103.757 105.731 102.954 105.386C102.151 105.042 101.286 104.865 100.413 104.867C98.8579 104.976 97.4019 105.673 96.3387 106.817C95.2755 107.961 94.6842 109.467 94.6842 111.032C94.6842 112.596 95.2755 114.102 96.3387 115.246C97.4019 116.39 98.8579 117.087 100.413 117.196C101.319 117.194 102.214 117.001 103.041 116.63C103.868 116.259 104.608 115.718 105.213 115.043L106.321 116.134C105.571 116.968 104.65 117.63 103.622 118.074C102.594 118.518 101.482 118.734 100.363 118.708Z" fill="white"/>
<path d="M116.292 118.708C114.768 118.726 113.272 118.289 111.995 117.452C110.719 116.615 109.718 115.417 109.122 114.009C108.525 112.601 108.358 111.047 108.643 109.543C108.929 108.04 109.652 106.656 110.723 105.566C111.793 104.477 113.162 103.731 114.656 103.423C116.15 103.115 117.701 103.26 119.112 103.839C120.524 104.417 121.732 105.404 122.584 106.673C123.436 107.942 123.893 109.436 123.897 110.966C123.93 111.983 123.756 112.995 123.387 113.942C123.018 114.888 122.461 115.75 121.749 116.474C121.038 117.198 120.188 117.769 119.25 118.154C118.311 118.538 117.305 118.726 116.292 118.708ZM116.292 104.817C115.502 104.82 114.721 104.984 113.996 105.298C113.27 105.612 112.616 106.07 112.071 106.644C111.527 107.219 111.104 107.898 110.827 108.641C110.551 109.383 110.428 110.174 110.464 110.966C110.432 111.762 110.559 112.556 110.839 113.301C111.119 114.047 111.546 114.728 112.093 115.304C112.64 115.881 113.298 116.341 114.026 116.657C114.754 116.973 115.539 117.14 116.332 117.146C117.122 117.144 117.903 116.982 118.628 116.669C119.354 116.356 120.008 115.899 120.553 115.325C121.098 114.751 121.521 114.073 121.797 113.331C122.073 112.589 122.197 111.798 122.161 111.006C122.194 110.21 122.068 109.415 121.788 108.668C121.509 107.922 121.083 107.24 120.535 106.662C119.988 106.085 119.33 105.624 118.601 105.307C117.872 104.99 117.087 104.823 116.292 104.817Z" fill="white"/>
<path d="M138.995 103.515H140.632V118.428H139.285L129.684 106.179V118.428H128.047V103.515H129.614L138.995 115.483V103.515Z" fill="white"/>
<path d="M152.372 118.708C151.359 118.747 150.349 118.574 149.406 118.199C148.463 117.824 147.608 117.256 146.897 116.532C146.185 115.807 145.631 114.941 145.272 113.99C144.912 113.039 144.754 112.023 144.807 111.006C144.774 110.003 144.942 109.002 145.301 108.065C145.661 107.128 146.204 106.273 146.9 105.55C147.595 104.828 148.428 104.254 149.35 103.861C150.271 103.468 151.261 103.266 152.262 103.265C154.302 103.18 156.293 103.899 157.811 105.268L156.733 106.54C155.507 105.393 153.878 104.781 152.202 104.837C151.425 104.859 150.661 105.036 149.953 105.359C149.246 105.681 148.61 106.143 148.082 106.716C147.555 107.289 147.147 107.962 146.883 108.695C146.619 109.429 146.503 110.208 146.544 110.986C146.544 114.562 148.819 117.216 152.432 117.216C153.992 117.207 155.505 116.678 156.733 115.714V112.008H152.202V110.496H158.35V116.425C156.7 117.889 154.575 118.7 152.372 118.708Z" fill="white"/>
<path d="M173.031 118.428L168.71 112.629H164.458V118.428H162.781V103.515H169.179C172.452 103.515 174.558 105.288 174.558 107.972C174.558 110.476 172.861 111.918 170.516 112.348L175.087 118.448L173.031 118.428ZM169.039 105.057H164.448V111.117H169.019C171.254 111.117 172.851 109.965 172.851 108.022C172.851 106.079 171.454 105.078 169.049 105.078L169.039 105.057Z" fill="white"/>
<path d="M189.499 105.047H180.427V110.155H188.551V111.687H180.427V116.915H189.608V118.428H178.75V103.515H189.499V105.047Z" fill="white"/>
<path d="M198.88 110.175C202.193 110.896 203.72 112.118 203.72 114.422C203.72 116.996 201.595 118.658 198.64 118.658C196.383 118.686 194.203 117.831 192.562 116.275L193.561 115.033C194.228 115.71 195.024 116.247 195.902 116.61C196.78 116.973 197.721 117.155 198.67 117.146C200.666 117.146 201.984 116.144 201.984 114.592C201.984 113.04 201.235 112.389 198.112 111.728C194.688 110.987 193.121 109.875 193.121 107.401C193.121 104.927 195.177 103.305 198.012 103.305C199.92 103.254 201.78 103.906 203.241 105.138L202.243 106.44C201.052 105.395 199.524 104.819 197.942 104.817C196.016 104.817 194.778 105.889 194.778 107.251C194.778 108.613 195.606 109.464 198.88 110.175Z" fill="white"/>
<path d="M212.989 110.175C216.303 110.896 217.84 112.118 217.84 114.422C217.84 116.996 215.714 118.658 212.76 118.658C210.499 118.687 208.316 117.832 206.672 116.274L207.67 115.033C208.335 115.711 209.129 116.247 210.005 116.61C210.882 116.973 211.822 117.155 212.77 117.146C214.766 117.146 216.083 116.144 216.083 114.592C216.083 113.04 215.345 112.389 212.221 111.728C208.798 110.987 207.231 109.875 207.231 107.401C207.231 104.927 209.297 103.305 212.121 103.305C214.029 103.252 215.89 103.904 217.351 105.138L216.353 106.44C215.165 105.396 213.64 104.819 212.061 104.817C210.125 104.817 208.887 105.889 208.887 107.251C208.887 108.613 209.716 109.464 212.989 110.175Z" fill="white"/>
<path d="M235.509 118.708C233.468 118.7 231.514 117.879 230.076 116.425C228.639 114.971 227.836 113.004 227.844 110.956C227.852 108.909 228.67 106.948 230.119 105.505C231.567 104.063 233.528 103.257 235.568 103.265C236.648 103.23 237.722 103.422 238.722 103.829C239.723 104.236 240.627 104.849 241.377 105.628L240.199 106.87C239.595 106.236 238.868 105.732 238.064 105.387C237.259 105.043 236.393 104.866 235.519 104.867C233.964 104.976 232.508 105.673 231.444 106.817C230.381 107.961 229.79 109.467 229.79 111.031C229.79 112.596 230.381 114.102 231.444 115.246C232.508 116.39 233.964 117.087 235.519 117.196C236.425 117.195 237.32 117.003 238.147 116.632C238.974 116.261 239.714 115.719 240.319 115.043L241.427 116.134C240.682 116.964 239.768 117.623 238.747 118.067C237.726 118.511 236.621 118.73 235.509 118.708Z" fill="white"/>
<path d="M255.716 105.047H246.644V110.155H254.758V111.687H246.644V116.915H255.826V118.428H244.957V103.515H255.716V105.047Z" fill="white"/>
<path d="M270.448 103.515H272.135V118.428H270.797L261.156 106.199V118.428H259.52V103.515H261.096L270.468 115.483L270.448 103.515Z" fill="white"/>
<path d="M282.275 118.428H280.568V105.078H275.578V103.515H287.265V105.078H282.275V118.428Z" fill="white"/>
<path d="M301.358 105.047H292.286V110.155H300.41V111.687H292.286V116.915H301.468V118.428H290.609V103.515H301.358V105.047Z" fill="white"/>
<path d="M315.387 118.428L311.055 112.649H306.804V118.428H305.117V103.515H311.525C314.798 103.515 316.904 105.288 316.904 107.972C316.904 110.476 315.197 111.918 312.862 112.348L317.433 118.448L315.387 118.428ZM311.395 105.057H306.804V111.117H311.375C313.6 111.117 315.197 109.965 315.197 108.022C315.197 106.079 313.82 105.078 311.415 105.078L311.395 105.057Z" fill="white"/>
<path d="M214.518 131.507C217.842 132.228 219.369 133.45 219.369 135.754C219.369 138.328 217.243 139.99 214.289 139.99C212.031 140.018 209.852 139.163 208.211 137.606L209.209 136.365C209.881 137.042 210.683 137.577 211.566 137.937C212.449 138.296 213.396 138.474 214.349 138.458C216.345 138.458 217.672 137.456 217.672 135.904C217.672 134.352 216.924 133.701 213.8 133.04C210.377 132.299 208.81 131.187 208.81 128.713C208.81 126.239 210.876 124.617 213.7 124.617C215.609 124.562 217.47 125.214 218.93 126.45L217.932 127.752C216.745 126.706 215.219 126.13 213.64 126.129C211.704 126.129 210.476 127.201 210.476 128.563C210.476 129.925 211.255 130.796 214.518 131.507Z" fill="white"/>
<path d="M236.844 139.78H235.038L233.291 135.834H225.227L223.461 139.78H221.734L228.521 124.757H230.088L236.844 139.78ZM229.22 126.7L225.816 134.321H232.593L229.22 126.7Z" fill="white"/>
<path d="M250.445 139.78L246.183 133.981H241.932V139.78H240.195V124.847H246.603C249.876 124.847 251.982 126.62 251.982 129.304C251.982 131.798 250.275 133.25 247.94 133.68L252.511 139.78H250.445ZM246.453 126.41H241.862V132.419H246.433C248.659 132.419 250.255 131.267 250.255 129.324C250.255 127.381 248.878 126.44 246.473 126.44L246.453 126.41Z" fill="white"/>
<path d="M270.427 139.78H268.62L266.884 135.834H258.78L257.013 139.78H255.297L262.073 124.757H263.65L270.427 139.78ZM262.842 126.7L259.439 134.321H266.225L262.842 126.7Z" fill="white"/>
<path d="M284.737 124.847H286.374V139.78H285.037L275.426 127.531V139.78H273.789V124.847H275.356L284.737 136.815V124.847Z" fill="white"/>
<path d="M296.474 131.507C299.787 132.228 301.314 133.45 301.314 135.754C301.314 138.327 299.188 139.99 296.234 139.99C293.977 140.018 291.797 139.163 290.156 137.606L291.154 136.365C291.821 137.042 292.618 137.579 293.495 137.942C294.373 138.305 295.315 138.487 296.264 138.478C298.26 138.478 299.578 137.476 299.578 135.924C299.578 134.372 298.829 133.721 295.705 133.06C292.282 132.318 290.715 131.207 290.715 128.733C290.715 126.259 292.771 124.637 295.605 124.637C297.523 124.567 299.399 125.209 300.875 126.44L299.877 127.742C298.686 126.697 297.158 126.121 295.576 126.119C293.639 126.119 292.412 127.191 292.412 128.553C292.412 129.915 293.2 130.796 296.474 131.507Z" fill="white"/>
<path d="M318.046 139.78H315.94L310.221 132.549L307.067 135.774V139.78H305.391V124.847H307.067V133.761L315.61 124.847H317.786L311.409 131.377L318.046 139.78Z" fill="white"/>
<mask id="mask1_511_2780" style="mask-type:luminance" maskUnits="userSpaceOnUse" x="-99" y="-363" width="595" height="844">
<path d="M495.97 -362.293H-98.1328V480.861H495.97V-362.293Z" fill="white"/>
</mask>
<g mask="url(#mask1_511_2780)">
<path d="M44.7462 102.744C45.2652 102.103 45.7442 101.122 48.4289 100.471C48.4289 100.471 138.85 69.6445 259.151 75.8138C259.151 75.8138 265.978 75.5634 264.142 78.5579C263.054 80.3205 261.018 80.4307 257.155 80.631C255.018 80.8123 252.872 80.8625 250.728 80.7812C250.728 80.7812 263.034 85.5784 214.47 84.5769C214.47 84.5769 218.751 88.9635 200.897 87.7016C200.897 87.7016 151.095 85.4282 50.4349 103.726C50.4349 103.726 42.5206 105.438 44.7462 102.724" fill="#96C2D7"/>
<path d="M192.961 36.9655C189.967 30.5759 187.921 35.964 187.921 35.964C185.925 41.4923 173.489 55.5534 171.024 57.9971C160.635 67.0106 164.228 61.4122 163.399 57.3561C163.399 57.3561 163.828 50.0051 165.894 48.3426C165.894 48.3426 166.982 48.8433 167.83 44.3365C167.83 44.3365 170.336 38.5278 163.639 37.4362C163.639 37.4362 159.068 34.2915 156.992 43.1848C156.992 43.1848 153.07 59.98 158.419 67.6515C158.419 67.6515 161.174 72.659 175.226 58.9485C180.146 54.1012 187.561 45.3681 187.561 45.3681C195.406 59.8198 183.42 63.7056 183.42 63.7056C178.948 66.64 183.509 67.321 183.509 67.321C201.933 67.7016 203.41 56.5248 203.41 56.5248C203.849 48.5128 193.011 36.9154 193.011 36.9154" fill="white"/>
<path d="M123.627 64.8373C123.627 64.8373 122.25 63.9259 122.34 59.7797C122.778 55.0151 124.608 50.4862 127.599 46.7602C127.599 46.7602 128.957 45.0376 130.074 44.8173C130.444 44.7572 131.072 45.298 131.312 47.5013C131.392 48.0421 129.835 48.1522 130.404 49.8748C130.404 49.8748 132.999 56.4748 138.468 53.5003C138.238 54.8423 137.999 56.2143 137.729 57.5764C134.885 61.5824 128.897 68.4126 123.627 64.8072M146.881 3.01456C146.881 3.01456 140.893 -4.56681 141.891 4.17631C142.246 17.8467 141.515 31.5237 139.705 45.0777C139.342 44.1304 138.863 43.2321 138.278 42.4036C138.278 42.4036 133.059 35.3931 127.2 37.3961C127.2 37.3961 119.725 39.7597 115.404 51.0766C115.404 51.0766 112.35 58.8984 113.218 64.7772C113.218 64.7772 112.928 80.2504 131.691 69.314C133.256 68.2864 134.702 67.0872 136.003 65.7387C135.554 67.6716 134.815 68.9334 134.745 70.9264C134.745 70.9264 134.077 75.0126 135.943 76.0341C136.641 76.4247 137.41 75.8838 139.067 71.9079C139.067 71.9079 152.41 37.5764 153.109 23.3951C153.109 23.3951 157.8 16.3846 146.861 3.0546" fill="white"/>
<path d="M176.88 19.8098C177.179 17.0457 175.493 14.602 173.107 14.3516C170.722 14.1012 168.706 16.0141 168.327 18.6481C168.127 19.7183 168.02 20.804 168.008 21.8929C167.938 22.9645 166.57 26.8304 167.788 27.1408C169.006 27.4513 172.708 25.1378 174.515 23.7658C175.187 23.3234 175.75 22.7325 176.16 22.0381C176.57 21.3437 176.817 20.5643 176.88 19.7597" fill="white"/>
<path d="M253.378 34.8023C253.378 34.8023 240.583 53.8308 240.643 60.2304C240.643 60.2304 240.114 66.0992 246.751 65.8589C246.751 65.8589 253.437 65.4683 258.238 61.4923C258.238 61.4923 261.312 58.4177 263.118 58.0572C263.118 58.0572 267.47 58.5078 266.112 52.6891C266.112 52.6891 264.665 46.1293 263.038 43.6255C263.038 43.6255 261.561 40.7011 259.735 41.8228C259.735 41.8228 258.018 42.614 258.587 45.7086C258.587 45.7086 258.438 45.8188 259.326 48.3426C259.326 48.3426 261.402 54.7121 260.174 54.8824C259.697 54.9889 259.262 55.2366 258.927 55.5935C258.307 56.2438 257.64 56.8464 256.931 57.3962C256.931 57.3962 251.082 61.3321 252.39 55.7737C252.813 53.9294 253.339 52.1105 253.966 50.3256C253.966 50.3256 257.23 41.1718 260.823 36.3045C260.823 36.3045 264.326 32.0982 260.054 32.4187L258.847 32.4688C258.847 32.4688 256.591 30.5459 253.378 34.8123" fill="white"/>
<path d="M226.673 43.1747C224.408 41.7326 221.843 36.4547 223.849 33.9409C224.717 32.8392 226.484 31.8778 226.234 30.3255C225.655 26.8903 219.697 30.3255 218.579 34.4216C216.374 40.6109 209.687 44.5668 209.687 44.5668C208.609 45.5683 208.35 48.0621 208.35 48.0621C208.15 52.6189 211.044 49.4041 211.044 49.4041L218.17 43.8658C226.015 58.3174 214.038 62.2033 214.038 62.2033C212.452 62.8042 212.042 63.5453 212.042 64.4667C212.042 65.7085 214.098 65.8187 214.098 65.8187C232.522 66.1993 233.999 55.0225 233.999 55.0225C234.837 50.0751 229.717 45.3179 226.653 43.1747" fill="white"/>
<path d="M88.1076 69.5543C87.5149 70.7248 86.6272 71.7192 85.5327 72.4386C85.5327 72.4386 78.0276 77.0556 78.2871 70.5358C78.4893 68.1458 78.9889 65.7907 79.7741 63.5253C79.7741 63.5253 83.2373 54.7021 88.5967 49.5543C89.0957 49.0636 89.5148 49.0135 89.7943 49.3841C90.5428 50.3856 90.6725 51.5874 91.2414 52.5488L91.7304 53.31C91.0917 56.6249 89.445 62.9044 89.1655 67.6415C88.8909 68.3101 88.5357 68.9424 88.1076 69.5243M107.918 65.4482L107.689 65.0576C107.19 64.7171 104.765 65.8187 102.339 67.2709L101.292 67.8918C100.569 68.3165 99.8721 68.7847 99.2056 69.2939C99.2056 69.2939 97.6387 70.5358 97.8184 67.7416V67.6314C97.8184 67.0105 97.9681 66.2193 97.998 65.368C97.998 65.368 100.134 56.8252 101.062 54.4316C101.062 54.4316 101.561 52.1783 102.359 49.6144C102.359 49.6144 105.992 45.8287 99.3653 44.6069C99.3653 44.6069 96.1816 36.7451 92.7484 49.1337C92.5426 48.2699 92.1486 47.4626 91.5946 46.7699C91.0407 46.0772 90.3406 45.5163 89.5448 45.1277C89.0593 44.8758 88.5241 44.7356 87.9779 44.7171C87.6455 44.7358 87.3123 44.7358 86.9799 44.7171C86.9799 44.7171 83.7762 43.6154 80.353 47.9119C76.7102 51.9179 66.0912 64.7171 68.5164 75.4231C68.5164 75.4231 69.8238 80.9714 74.7241 80.9314C78.9477 80.8051 82.9897 79.1798 86.1315 76.3445C87.2053 75.3394 88.2059 74.2584 89.1256 73.1097C89.1835 73.8159 89.3004 74.5161 89.4749 75.2028L89.5747 75.6234C89.7408 76.4545 90.1592 77.2137 90.7723 77.7967C91.2961 78.2503 91.9171 78.5766 92.5869 78.7503C93.2568 78.9239 93.9575 78.9403 94.6347 78.7982L95.2235 78.6379C95.2235 78.6379 102.1 76.9754 101.93 74.041C101.85 72.5889 102.369 72.3085 102.369 72.3085C102.495 72.2352 102.592 72.1202 102.643 71.9831C102.694 71.8461 102.696 71.6956 102.649 71.5573C102.649 71.5573 108.128 67.8818 107.948 65.5483" fill="white"/>
<path d="M35.7211 33.7707C35.2121 32.8493 34.1043 33.36 31.4496 37.6765C31.4496 37.6765 8.70464 76.2243 4.12372 94.5017C4.12372 94.5017 -0.926272 107.121 5.82036 111.657C5.82036 111.657 7.32737 114.051 9.17371 114.472C9.69268 117.216 10.6508 119.74 12.5271 118.868C13.1858 118.568 13.2756 116.324 13.2157 114.141C13.1787 112.574 13.2991 111.007 13.575 109.464C13.7247 108.943 13.8644 108.413 14.0141 107.802C14.0141 107.802 14.1039 107.401 14.2936 106.66L14.4233 106.299C16.4992 98.0671 26.9186 57.6865 35.252 40.5909C35.252 40.5909 37.1782 36.3946 35.7411 33.7506" fill="white"/>
<path d="M70.263 98.3975C70.263 98.3975 50.6818 68.8732 48.6858 62.6038C48.1856 61.2596 47.4894 59.9973 46.6199 58.8582C47.8674 58.8582 49.2846 58.8081 50.9014 58.718C50.9014 58.718 61.3008 58.5177 65.6721 50.4656C66.8797 48.2523 69.1952 40.6809 60.2429 31.1667C60.2429 31.1667 48.9253 17.6764 23.2162 15.9639C23.2162 15.9639 16.2301 12.6689 3.03623 23.6654C3.03623 23.6654 -1.95389 27.6714 0.860538 28.5828C1.93502 28.9849 3.11363 29.0096 4.20391 28.6529C4.20391 28.6529 25.6913 21.362 52.3785 36.745C52.3785 36.745 62.9076 43.4351 56.3706 50.0951C56.3706 50.0951 53.7757 52.9794 47.1389 54.041C47.1389 54.041 45.562 54.3414 42.4481 54.6619C42.4481 54.6619 40.9112 54.8021 38.7954 54.9023C38.7954 54.9023 36.1007 54.9023 35.8013 55.6734C35.6716 56.1642 36.1207 56.3444 37.5878 57.0555C34.8033 57.366 33.7554 57.7666 33.0967 58.4977C32.9444 58.6874 32.8411 58.9118 32.7958 59.1511C32.7505 59.3904 32.7648 59.6372 32.8372 59.8697C39.1499 75.8597 49.297 90.0395 62.3787 101.152C62.3787 101.152 73.4168 109.815 75.8719 107.671C76.6205 107.01 73.8759 103.445 70.263 98.3975Z" fill="white"/>
<path d="M311.053 61.4723C307.969 59.5795 299.486 42.4438 299.486 42.4438C297.49 39.4894 294.137 43.0847 294.137 43.0847C291.861 44.8374 288.717 50.3557 287.091 53.6806C284.935 57.3862 285.484 52.5489 285.484 52.5489C285.584 51.2169 285.983 49.1338 287.48 48.1624C287.48 48.1624 288.618 49.1038 289.875 44.7472C289.875 44.7472 292.27 39.0287 286.362 37.4763C286.362 37.4763 282.101 33.921 279.186 42.574C279.186 42.574 275.194 55.1128 276.791 62.9245C276.791 62.9245 277.54 72.0983 285.254 64.9275C286.167 63.9867 286.992 62.9642 287.719 61.8729C288.959 60.0099 290.002 58.023 290.833 55.944C292.345 52.6462 294.306 49.5755 296.662 46.8204C296.223 52.0181 302.221 65.7788 302.221 65.7788C304.307 72.7893 307.7 72.5389 307.7 72.5389C325.175 73.1298 311.093 61.5224 311.093 61.5224" fill="white"/>
<path d="M272.303 76.5248C275.975 76.7551 280.107 76.8052 285.846 77.3661C288.84 77.6565 293.421 77.6565 294.07 79.5894C294.668 81.3721 292.423 83.2048 288.411 83.976C286.734 84.4085 285.012 84.6338 283.281 84.647C281.115 84.5668 276.474 84.7371 276.355 82.2233C276.255 80.661 273.221 80.671 271.205 80.5909C267.153 80.4407 267.572 79.2889 268.45 77.9069C268.979 77.0556 270.087 76.5148 272.303 76.5248Z" fill="#96C2D7"/>
</g>
</g>
</g>
<defs>
<clipPath id="clip0_511_2780">
<rect width="318" height="140" fill="white"/>
</clipPath>
</defs>
</svg>
