<svg width="50" height="50" viewBox="0 0 50 50" fill="none" xmlns="http://www.w3.org/2000/svg">
<path d="M27.0833 41.6667V37.5C27.0833 31.7471 22.4196 27.0834 16.6667 27.0834C10.9137 27.0834 6.25 31.7471 6.25 37.5V41.6667H27.0833ZM27.0833 41.6667H43.75V39.5834C43.75 33.4469 39.0863 29.1667 33.3333 29.1667C30.3889 29.1667 27.7298 30.4698 25.8353 32.5648M22.9167 14.5834C22.9167 18.0352 20.1184 20.8334 16.6667 20.8334C13.2149 20.8334 10.4167 18.0352 10.4167 14.5834C10.4167 11.1316 13.2149 8.33337 16.6667 8.33337C20.1184 8.33337 22.9167 11.1316 22.9167 14.5834ZM37.5 18.75C37.5 21.0512 35.6345 22.9167 33.3333 22.9167C31.0321 22.9167 29.1667 21.0512 29.1667 18.75C29.1667 16.4489 31.0321 14.5834 33.3333 14.5834C35.6345 14.5834 37.5 16.4489 37.5 18.75Z" stroke="#AB8C6F" stroke-width="2" stroke-linecap="round" stroke-linejoin="round"/>
</svg>
