<svg width="50" height="50" viewBox="0 0 50 50" fill="none" xmlns="http://www.w3.org/2000/svg">
<g id="expand">
<path id="Icon" d="M8.33398 18.75V11.6667C8.33398 10.4999 8.33398 9.91655 8.56105 9.4709C8.76079 9.0789 9.0795 8.76019 9.4715 8.56045C9.91715 8.33338 10.5005 8.33338 11.6673 8.33338L18.7507 8.33337M8.33398 31.25V38.3334C8.33398 39.5001 8.33398 40.0835 8.56105 40.5292C8.76079 40.9212 9.0795 41.2399 9.4715 41.4396C9.91715 41.6667 10.5005 41.6667 11.6673 41.6667L18.7507 41.6667M31.2507 8.33337H38.334C39.5008 8.33337 40.0841 8.33337 40.5298 8.56044C40.9218 8.76018 41.2405 9.07889 41.4402 9.47089C41.6673 9.91654 41.6673 10.4999 41.6673 11.6667V18.75M41.6673 31.25V38.3334C41.6673 39.5001 41.6673 40.0835 41.4402 40.5292C41.2405 40.9212 40.9218 41.2399 40.5298 41.4396C40.0841 41.6667 39.5008 41.6667 38.334 41.6667H31.2507" stroke="#AB8C6F" stroke-width="2" stroke-linecap="round" stroke-linejoin="round"/>
</g>
</svg>
