<svg width="60" height="60" viewBox="0 0 60 60" fill="none" xmlns="http://www.w3.org/2000/svg">
<g id="briefcase-alt">
<path id="Icon" d="M40 17.5V15.5C40 12.6997 40 11.2996 39.455 10.23C38.9757 9.28924 38.2108 8.52433 37.27 8.04497C36.2004 7.5 34.8003 7.5 32 7.5H28C25.1997 7.5 23.7996 7.5 22.73 8.04497C21.7892 8.52433 21.0243 9.28924 20.545 10.23C20 11.2996 20 12.6997 20 15.5V17.5M7.56803 25.0659C8.4694 25.9297 18.2143 35 30 35C41.7857 35 51.5306 25.9297 52.432 25.0659M7.56803 25.0659C7.5 26.2326 7.5 27.6661 7.5 29.5V40.5C7.5 44.7004 7.5 46.8006 8.31745 48.4049C9.0365 49.8161 10.1839 50.9635 11.5951 51.6825C13.1994 52.5 15.2996 52.5 19.5 52.5H40.5C44.7004 52.5 46.8006 52.5 48.4049 51.6825C49.8161 50.9635 50.9635 49.8161 51.6825 48.4049C52.5 46.8006 52.5 44.7004 52.5 40.5V29.5C52.5 27.6661 52.5 26.2326 52.432 25.0659M7.56803 25.0659C7.65582 23.5603 7.85689 22.499 8.31745 21.5951C9.0365 20.1839 10.1839 19.0365 11.5951 18.3175C13.1994 17.5 15.2996 17.5 19.5 17.5H40.5C44.7004 17.5 46.8006 17.5 48.4049 18.3175C49.8161 19.0365 50.9635 20.1839 51.6825 21.5951C52.1431 22.499 52.3442 23.5603 52.432 25.0659" stroke="#AB8C6F" stroke-width="2" stroke-linecap="round" stroke-linejoin="round"/>
</g>
</svg>
