<?xml version="1.0" standalone="no"?>
<!DOCTYPE svg PUBLIC "-//W3C//DTD SVG 20010904//EN"
 "http://www.w3.org/TR/2001/REC-SVG-20010904/DTD/svg10.dtd">
<svg version="1.0" xmlns="http://www.w3.org/2000/svg"
 width="500.000000pt" height="500.000000pt" viewBox="0 0 500.000000 500.000000"
 preserveAspectRatio="xMidYMid meet">
<metadata>
Created by potrace 1.14, written by Peter Selinger 2001-2017
</metadata>
<g transform="translate(0.000000,500.000000) scale(0.100000,-0.100000)"
fill="#000000" stroke="none">
<path d="M0 2500 l0 -2500 2500 0 2500 0 0 2500 0 2500 -2500 0 -2500 0 0
-2500z m1211 684 c57 -29 59 -45 59 -469 l0 -385 -30 0 -30 0 0 295 0 295 -70
0 -70 0 0 -295 0 -295 -30 0 -30 0 0 291 c0 279 -1 291 -19 296 -11 3 -24 18
-30 34 -9 27 -8 29 13 29 21 0 24 6 30 67 8 74 26 112 65 136 33 21 103 22
142 1z m429 -106 l0 112 30 0 30 0 0 -430 0 -430 -30 0 -30 0 0 268 0 267 -90
90 -90 90 0 -358 0 -357 -30 0 -30 0 0 437 0 438 120 -120 120 -120 0 113z
m701 108 c110 -29 222 -119 273 -219 87 -174 62 -368 -66 -503 -62 -65 -115
-99 -199 -125 -231 -72 -482 69 -545 306 -31 114 -7 261 56 357 104 156 299
231 481 184z m1123 -15 c41 -39 46 -87 46 -475 l0 -366 -30 0 -30 0 -2 293 -3
292 -72 3 -73 3 0 -296 0 -295 -30 0 -30 0 0 295 c0 288 0 295 -20 295 -11 0
-20 3 -20 8 0 4 -3 17 -6 30 -5 19 -2 22 20 22 25 0 26 2 26 64 0 70 24 119
70 144 38 20 125 10 154 -17z m591 -441 c30 -190 58 -357 61 -372 5 -26 3 -28
-28 -28 l-34 0 -49 313 c-26 171 -51 318 -55 325 -3 7 -25 -33 -49 -93 -24
-58 -47 -105 -51 -105 -4 0 -27 46 -50 103 -24 56 -46 105 -49 109 -3 4 -28
-141 -56 -323 l-50 -329 -32 0 c-18 0 -33 2 -33 4 0 3 18 116 40 253 22 136
52 325 67 418 14 94 30 174 33 178 4 5 33 -53 65 -127 32 -75 61 -136 65 -136
3 0 33 63 65 141 l60 141 12 -64 c7 -34 37 -218 68 -408z m346 453 c56 -33 59
-56 59 -473 l0 -380 -30 0 -30 0 0 295 0 295 -70 0 -70 0 -2 -292 -3 -293 -32
-3 -33 -3 0 295 c0 259 -2 296 -15 296 -9 0 -20 12 -25 26 -13 34 -13 34 14
34 22 0 24 5 28 68 6 75 25 114 67 137 36 20 107 18 142 -2z m-3685 -24 c74
-36 147 -113 174 -184 47 -124 24 -265 -59 -357 -60 -67 -119 -99 -223 -122
-28 -6 -28 -7 -28 -86 l0 -80 -30 0 -30 0 0 431 0 432 73 -5 c50 -3 89 -13
123 -29z m2227 -2 c68 -31 135 -96 167 -162 33 -66 40 -191 15 -264 -21 -63
-91 -143 -162 -183 l-53 -30 97 -80 c141 -116 136 -108 78 -108 -48 0 -54 3
-157 90 -59 50 -110 90 -113 90 -3 0 -5 -40 -5 -90 l0 -90 -30 0 -30 0 0 431
0 432 68 -5 c44 -3 89 -14 125 -31z m1527 -1154 l0 -208 -507 3 c-486 3 -509
4 -529 23 -19 18 -37 19 -295 19 -225 1 -277 3 -293 15 -16 12 -62 15 -237 15
-214 0 -218 0 -236 23 -18 22 -20 22 -240 19 -137 -1 -223 -6 -223 -12 0 -6
-11 -10 -25 -10 l-25 0 0 110 c0 109 0 110 24 110 13 0 26 -7 30 -15 4 -13 39
-15 222 -15 l216 0 20 25 19 25 218 0 c175 0 221 3 237 15 16 12 68 14 295 15
263 0 277 1 294 20 17 19 33 20 494 23 262 1 491 3 509 5 l32 2 0 -207z
m-3519 77 c10 0 19 -4 19 -10 0 -5 -9 -10 -20 -10 -18 0 -20 -7 -20 -60 0 -45
4 -61 18 -70 15 -10 15 -10 -3 -8 -17 3 -20 12 -23 71 -2 51 -6 67 -17 67 -8
0 -15 5 -15 10 0 6 7 10 15 10 8 0 16 10 16 23 l2 22 4 -22 c3 -15 12 -23 24
-23z m809 20 c0 -11 7 -20 15 -20 8 0 15 -4 15 -10 0 -5 -7 -10 -15 -10 -23 0
-21 -115 3 -130 15 -9 14 -10 -8 -8 -24 3 -25 7 -28 71 -2 51 -6 67 -17 67 -8
0 -15 5 -15 10 0 6 7 10 15 10 8 0 15 9 15 20 0 11 5 20 10 20 6 0 10 -9 10
-20z m-1200 -30 c18 12 30 13 30 2 0 -4 -10 -12 -22 -17 -20 -9 -23 -19 -26
-72 -4 -92 -22 -77 -22 18 0 65 3 79 13 71 8 -7 18 -7 27 -2z m152 -7 c10 -9
18 -27 18 -40 0 -21 -4 -23 -55 -23 -61 0 -71 -14 -35 -50 24 -24 38 -25 62
-3 23 21 35 11 13 -11 -21 -21 -63 -21 -87 1 -28 25 -25 107 4 127 29 21 57
20 80 -1z m143 1 c19 -20 12 -32 -9 -15 -18 15 -58 11 -64 -6 -2 -8 16 -21 42
-33 36 -15 46 -24 46 -43 0 -12 -5 -28 -12 -35 -17 -17 -64 -15 -83 4 -22 22
-10 32 13 11 23 -21 46 -22 61 -3 18 21 3 42 -40 55 -30 9 -39 17 -39 34 0 45
52 64 85 31z m233 4 c7 -7 12 -41 12 -82 0 -47 -3 -66 -9 -56 -6 8 -7 27 -4
42 5 27 4 28 -30 28 -26 0 -39 -6 -47 -19 -14 -27 14 -55 47 -46 16 4 22 2 18
-5 -9 -14 -58 -13 -73 2 -16 16 -15 53 1 66 6 6 28 12 47 14 27 2 35 7 35 23
0 24 -48 34 -71 14 -8 -6 -14 -7 -14 -2 0 17 24 33 50 33 14 0 31 -5 38 -12z
m82 -57 c0 -70 16 -91 55 -73 23 11 25 17 25 77 0 37 4 65 10 65 6 0 10 -33
10 -78 l0 -78 -45 -2 c-62 -2 -75 14 -75 94 0 41 4 63 10 59 6 -3 10 -32 10
-64z m188 58 c26 14 32 14 32 1 0 -5 -6 -10 -14 -10 -24 0 -38 -28 -46 -88 -7
-56 -7 -56 -9 28 0 51 3 80 8 71 6 -10 13 -11 29 -2z m146 -5 c11 -11 16 -34
16 -77 l0 -62 -50 -3 c-40 -2 -51 1 -59 17 -6 11 -11 24 -11 30 0 20 33 41 66
41 27 0 34 4 34 20 0 34 -53 46 -72 16 -4 -6 -11 -7 -15 -2 -11 11 26 36 53
36 13 0 30 -7 38 -16z m98 4 c19 19 55 14 72 -10 18 -25 23 -138 6 -138 -5 0
-10 30 -12 68 l-3 67 -31 3 c-37 4 -43 -6 -54 -88 -7 -53 -7 -52 -9 30 0 57 2
80 9 70 7 -12 12 -12 22 -2z"/>
<path d="M1095 3115 c-21 -20 -25 -34 -25 -80 l0 -55 70 0 70 0 0 58 c0 45 -5
63 -20 80 -27 29 -65 28 -95 -3z"/>
<path d="M2134 3126 c-68 -17 -131 -55 -181 -109 -145 -157 -134 -395 24 -537
76 -67 145 -93 248 -93 108 0 177 27 255 100 79 73 112 141 118 242 12 205
-109 364 -303 400 -71 13 -95 13 -161 -3z"/>
<path d="M3329 3121 c-18 -14 -23 -31 -27 -80 l-4 -61 76 0 76 0 0 33 c0 106
-59 159 -121 108z"/>
<path d="M4295 3128 c-30 -17 -35 -28 -35 -90 l0 -58 70 0 70 0 0 55 c0 46 -4
60 -25 80 -26 27 -49 31 -80 13z"/>
<path d="M580 2845 c0 -322 -7 -300 83 -269 62 21 135 87 163 149 28 60 32
149 8 217 -30 89 -120 165 -216 182 l-38 7 0 -286z"/>
<path d="M2810 2849 l0 -282 39 6 c161 21 265 194 217 359 -28 97 -112 169
-223 193 l-33 7 0 -283z"/>
<path d="M3471 2005 c-1 -126 3 -185 9 -175 9 13 10 13 10 0 0 -9 9 -16 20
-16 11 0 20 7 21 16 0 10 3 9 9 -5 l9 -20 0 20 c1 12 4 16 9 9 14 -20 42 -25
43 -6 0 14 2 14 9 -3 l9 -20 0 20 c1 17 3 18 11 5 9 -13 11 -13 20 0 8 13 10
12 11 -5 l0 -20 9 20 c6 14 9 15 9 5 1 -9 10 -16 21 -16 11 0 20 7 21 16 0 10
3 9 9 -5 l9 -20 1 20 c1 15 3 17 8 5 10 -21 42 -22 43 -1 0 12 2 12 9 -4 l9
-20 0 20 c1 17 3 18 11 5 9 -13 11 -13 20 0 8 13 10 12 11 -5 l0 -20 8 20 8
20 5 -20 6 -20 1 20 c1 16 3 17 10 6 13 -21 41 -22 42 -3 0 14 2 13 9 -3 l9
-20 0 20 c1 17 3 18 11 5 9 -13 11 -13 20 0 8 13 10 12 11 -5 l0 -20 9 20 9
20 1 -20 c1 -20 1 -20 15 -1 15 20 15 20 16 0 0 -18 1 -18 9 1 6 14 9 15 9 5
1 -21 61 -21 62 0 0 10 3 8 9 -5 l9 -20 0 20 c1 17 3 18 11 5 9 -13 11 -13 20
0 8 13 10 12 11 -5 l0 -20 9 20 c6 14 9 15 9 5 1 -9 10 -16 21 -16 11 0 20 7
21 16 0 10 3 9 9 -5 l9 -20 1 20 c1 15 3 17 8 5 10 -21 42 -22 43 -1 0 12 2
12 9 -4 l9 -20 0 20 c1 17 3 18 11 5 8 -13 11 -13 19 -1 7 11 10 10 14 -5 2
-10 5 69 5 176 0 107 -3 186 -7 176 -7 -19 -8 -19 -15 0 -8 19 -8 19 -16 -1
l-9 -20 -1 20 -1 20 -9 -20 c-6 -14 -9 -15 -9 -5 -1 9 -10 16 -21 16 -11 0
-20 -7 -21 -16 0 -10 -3 -9 -9 5 l-9 20 -1 -20 c-1 -15 -3 -17 -8 -5 -4 8 -14
15 -22 15 -8 0 -18 -7 -22 -15 -5 -12 -7 -10 -8 5 l-1 20 -9 -20 c-7 -17 -9
-17 -9 -2 -1 9 -5 17 -11 17 -5 0 -10 -8 -11 -17 0 -15 -2 -15 -9 2 l-9 20 -1
-20 c-1 -15 -3 -17 -8 -5 -10 21 -62 22 -63 1 0 -12 -3 -11 -9 4 -8 19 -9 19
-9 1 -1 -20 -1 -20 -16 0 -14 19 -14 19 -15 -1 l-1 -20 -9 20 -9 20 -1 -20
c-1 -20 -2 -20 -9 0 -8 19 -8 19 -19 0 -11 -20 -11 -20 -12 0 l-1 20 -9 -20
c-6 -14 -9 -15 -9 -5 -1 22 -41 23 -42 2 0 -14 -2 -13 -9 3 l-9 20 -1 -20 -1
-20 -9 20 c-8 19 -9 19 -9 1 -1 -20 -1 -20 -16 0 -14 19 -14 19 -15 -1 l-1
-20 -9 20 -9 20 -1 -20 c-1 -15 -3 -17 -8 -5 -4 8 -14 15 -22 15 -8 0 -18 -7
-22 -15 -5 -12 -7 -10 -8 5 l-1 20 -9 -20 c-6 -14 -9 -15 -9 -5 -1 9 -10 16
-21 16 -11 0 -20 -7 -21 -16 0 -10 -3 -9 -9 5 -8 19 -9 19 -9 1 -1 -20 -1 -20
-16 0 -14 19 -14 19 -15 -1 l-1 -20 -9 20 -9 20 -1 -20 c-1 -15 -3 -17 -8 -5
-4 8 -14 15 -22 15 -8 0 -18 -7 -22 -15 -5 -12 -7 -10 -8 5 l-1 20 -9 -20 c-6
-14 -9 -15 -9 -5 -1 9 -10 16 -21 16 -11 0 -20 -7 -21 -16 0 -10 -3 -9 -9 5
-5 12 -9 -55 -9 -170z m16 -62 c-2 -16 -4 -5 -4 22 0 28 2 40 4 28 2 -13 2
-35 0 -50z m50 0 c-2 -16 -4 -5 -4 22 0 28 2 40 4 28 2 -13 2 -35 0 -50z m20
0 c-2 -16 -4 -5 -4 22 0 28 2 40 4 28 2 -13 2 -35 0 -50z m50 0 c-2 -16 -4 -5
-4 22 0 28 2 40 4 28 2 -13 2 -35 0 -50z m20 0 c-2 -16 -4 -5 -4 22 0 28 2 40
4 28 2 -13 2 -35 0 -50z m30 0 c-2 -16 -4 -5 -4 22 0 28 2 40 4 28 2 -13 2
-35 0 -50z m20 0 c-2 -16 -4 -5 -4 22 0 28 2 40 4 28 2 -13 2 -35 0 -50z m50
0 c-2 -16 -4 -5 -4 22 0 28 2 40 4 28 2 -13 2 -35 0 -50z m20 0 c-2 -16 -4 -5
-4 22 0 28 2 40 4 28 2 -13 2 -35 0 -50z m50 0 c-2 -16 -4 -5 -4 22 0 28 2 40
4 28 2 -13 2 -35 0 -50z m20 0 c-2 -16 -4 -5 -4 22 0 28 2 40 4 28 2 -13 2
-35 0 -50z m30 0 c-2 -16 -4 -5 -4 22 0 28 2 40 4 28 2 -13 2 -35 0 -50z m20
0 c-2 -16 -4 -5 -4 22 0 28 2 40 4 28 2 -13 2 -35 0 -50z m20 0 c-2 -16 -4 -5
-4 22 0 28 2 40 4 28 2 -13 2 -35 0 -50z m50 0 c-2 -16 -4 -5 -4 22 0 28 2 40
4 28 2 -13 2 -35 0 -50z m20 0 c-2 -16 -4 -5 -4 22 0 28 2 40 4 28 2 -13 2
-35 0 -50z m30 0 c-2 -16 -4 -5 -4 22 0 28 2 40 4 28 2 -13 2 -35 0 -50z m20
0 c-2 -16 -4 -5 -4 22 0 28 2 40 4 28 2 -13 2 -35 0 -50z m30 0 c-2 -16 -4 -5
-4 22 0 28 2 40 4 28 2 -13 2 -35 0 -50z m20 0 c-2 -16 -4 -5 -4 22 0 28 2 40
4 28 2 -13 2 -35 0 -50z m70 0 c-2 -16 -4 -5 -4 22 0 28 2 40 4 28 2 -13 2
-35 0 -50z m20 0 c-2 -16 -4 -5 -4 22 0 28 2 40 4 28 2 -13 2 -35 0 -50z m30
0 c-2 -16 -4 -5 -4 22 0 28 2 40 4 28 2 -13 2 -35 0 -50z m20 0 c-2 -16 -4 -5
-4 22 0 28 2 40 4 28 2 -13 2 -35 0 -50z m50 0 c-2 -16 -4 -5 -4 22 0 28 2 40
4 28 2 -13 2 -35 0 -50z m20 0 c-2 -16 -4 -5 -4 22 0 28 2 40 4 28 2 -13 2
-35 0 -50z m50 0 c-2 -16 -4 -5 -4 22 0 28 2 40 4 28 2 -13 2 -35 0 -50z m20
0 c-2 -16 -4 -5 -4 22 0 28 2 40 4 28 2 -13 2 -35 0 -50z m30 0 c-2 -16 -4 -5
-4 22 0 28 2 40 4 28 2 -13 2 -35 0 -50z"/>
<path d="M4420 2173 c0 -15 -2 -16 -10 -3 -6 10 -10 -49 -9 -175 0 -115 4
-182 9 -170 7 17 9 17 9 3 1 -20 20 -25 22 -5 5 48 8 308 3 335 -5 33 -24 45
-24 15z m-3 -230 c-2 -16 -4 -5 -4 22 0 28 2 40 4 28 2 -13 2 -35 0 -50z"/>
<path d="M3439 2158 c-1 -2 -2 -14 -4 -28 -2 -14 -6 -35 -9 -47 -2 -13 -1 -25
4 -28 5 -3 7 -14 4 -25 -2 -11 -6 -29 -8 -40 -3 -11 -2 -22 2 -24 4 -2 7 -30
6 -61 0 -30 2 -58 6 -60 3 -2 6 50 6 116 0 77 -4 119 -10 119 -7 0 -8 3 -1 8
9 6 16 72 8 72 -2 0 -3 -1 -4 -2z"/>
<path d="M2886 2108 c-3 -18 -5 -80 -3 -138 l2 -105 258 0 c141 -1 257 -1 258
0 7 2 6 240 0 257 -7 17 -10 19 -10 6 -1 -10 -5 -18 -11 -18 -5 0 -10 8 -11
18 0 14 -2 14 -9 -3 -7 -17 -9 -17 -9 -2 -1 21 -21 23 -21 2 0 -8 -4 -15 -10
-15 -5 0 -10 7 -10 15 0 21 -18 19 -23 -2 -4 -17 -5 -17 -6 0 -1 21 -21 23
-21 2 0 -8 -4 -15 -10 -15 -5 0 -10 7 -10 15 0 21 -18 19 -23 -2 -4 -17 -5
-17 -6 0 0 9 -5 17 -10 17 -5 0 -12 -8 -14 -17 -4 -17 -5 -17 -6 0 -1 22 -51
24 -51 2 0 -8 -4 -15 -10 -15 -5 0 -10 7 -10 15 0 21 -18 19 -23 -2 -4 -17 -5
-17 -6 0 -1 21 -21 23 -21 2 0 -8 -4 -15 -10 -15 -5 0 -10 7 -10 15 0 21 -18
19 -23 -2 -4 -17 -5 -17 -6 0 0 9 -5 17 -10 17 -5 0 -12 -8 -14 -17 -4 -17 -5
-17 -6 0 -1 21 -21 23 -21 2 0 -21 -18 -19 -23 3 -4 16 -5 16 -6 0 -1 -22 -21
-24 -21 -3 0 29 -19 15 -24 -17z m44 -148 c0 -16 -4 -30 -10 -30 -5 0 -10 14
-10 30 0 17 5 30 10 30 6 0 10 -13 10 -30z m30 0 c0 -16 -4 -30 -10 -30 -5 0
-10 14 -10 30 0 17 5 30 10 30 6 0 10 -13 10 -30z m27 -17 c-3 -10 -5 -2 -5
17 0 19 2 27 5 18 2 -10 2 -26 0 -35z m30 0 c-3 -10 -5 -2 -5 17 0 19 2 27 5
18 2 -10 2 -26 0 -35z m43 17 c0 -16 -4 -30 -10 -30 -5 0 -10 14 -10 30 0 17
5 30 10 30 6 0 10 -13 10 -30z m27 -17 c-3 -10 -5 -2 -5 17 0 19 2 27 5 18 2
-10 2 -26 0 -35z m43 17 c0 -16 -4 -30 -10 -30 -5 0 -10 14 -10 30 0 17 5 30
10 30 6 0 10 -13 10 -30z m57 -17 c-3 -10 -5 -2 -5 17 0 19 2 27 5 18 2 -10 2
-26 0 -35z m30 0 c-3 -10 -5 -2 -5 17 0 19 2 27 5 18 2 -10 2 -26 0 -35z m43
17 c0 -16 -4 -30 -10 -30 -5 0 -10 14 -10 30 0 17 5 30 10 30 6 0 10 -13 10
-30z m27 -17 c-3 -10 -5 -2 -5 17 0 19 2 27 5 18 2 -10 2 -26 0 -35z m43 17
c0 -16 -4 -30 -10 -30 -5 0 -10 14 -10 30 0 17 5 30 10 30 6 0 10 -13 10 -30z
m27 -17 c-3 -10 -5 -2 -5 17 0 19 2 27 5 18 2 -10 2 -26 0 -35z m33 17 c0 -16
-4 -30 -10 -30 -5 0 -10 14 -10 30 0 17 5 30 10 30 6 0 10 -13 10 -30z"/>
<path d="M2849 2118 c-1 -2 -2 -15 -3 -29 -2 -14 -6 -31 -10 -37 -3 -6 -2 -13
3 -16 9 -6 8 -57 -3 -74 -3 -6 -2 -13 3 -16 5 -3 7 -19 6 -36 -1 -17 0 -28 4
-25 3 4 6 58 6 121 1 97 -1 124 -6 112z"/>
<path d="M2402 2098 c-14 -14 -16 -88 -2 -88 6 0 10 -11 10 -24 0 -14 -4 -28
-10 -31 -14 -9 -12 -52 3 -57 10 -3 297 -2 390 1 22 1 27 6 27 26 0 20 -5 25
-25 25 -21 0 -25 5 -25 30 0 25 4 30 25 30 22 0 25 4 25 39 0 33 -4 40 -24 45
-13 3 -38 3 -55 0 -19 -4 -31 -2 -31 4 0 11 -18 11 -36 0 -12 -8 -34 -6 -51 5
-7 5 -13 4 -13 -1 0 -11 -183 -11 -191 0 -3 4 -10 3 -17 -4z m58 -118 c0 -19
-6 -26 -20 -27 -16 -1 -20 4 -20 27 0 23 4 28 20 27 14 -1 20 -8 20 -27z m70
0 c0 -23 -4 -30 -20 -30 -16 0 -20 7 -20 30 0 23 4 30 20 30 16 0 20 -7 20
-30z m80 0 c0 -23 -4 -30 -20 -30 -16 0 -20 7 -20 30 0 23 4 30 20 30 16 0 20
-7 20 -30z m60 1 c0 -24 -4 -29 -20 -28 -15 1 -20 8 -20 29 0 21 5 28 20 28
15 0 20 -7 20 -29z m80 -3 c0 -21 -5 -28 -20 -28 -15 0 -20 7 -20 29 0 24 4
29 20 28 15 -1 20 -8 20 -29z m-203 -10 c-3 -7 -5 -2 -5 12 0 14 2 19 5 13 2
-7 2 -19 0 -25z m150 0 c-3 -7 -5 -2 -5 12 0 14 2 19 5 13 2 -7 2 -19 0 -25z"/>
<path d="M1955 2060 c-32 -4 -41 -9 -43 -27 -2 -13 1 -23 7 -23 6 0 11 -7 11
-15 0 -8 -4 -15 -10 -15 -15 0 -12 -27 3 -33 7 -3 25 -3 40 0 16 3 27 1 27 -6
0 -8 6 -7 20 1 16 10 24 10 40 0 12 -7 20 -8 20 -2 0 14 37 13 46 -1 5 -8 9
-8 14 1 6 9 13 9 29 1 11 -7 21 -8 21 -3 0 6 23 10 50 10 28 0 50 -5 50 -10 0
-6 6 -5 14 2 8 6 25 10 38 8 22 -3 23 0 23 52 l0 55 -35 5 c-19 3 -80 3 -135
0 -55 -3 -121 -3 -145 0 -25 3 -63 3 -85 0z m35 -65 c0 -8 -9 -15 -20 -15 -11
0 -20 7 -20 15 0 8 9 15 20 15 11 0 20 -7 20 -15z m58 -3 c2 -7 -6 -12 -17
-12 -21 0 -27 11 -14 24 9 9 26 2 31 -12z m62 1 c0 -7 -9 -13 -20 -13 -11 0
-20 6 -20 14 0 9 9 14 20 13 11 -1 20 -7 20 -14z m40 2 c0 -8 -4 -15 -10 -15
-5 0 -10 7 -10 15 0 8 5 15 10 15 6 0 10 -7 10 -15z m70 0 c0 -8 -9 -15 -20
-15 -20 0 -26 11 -13 23 12 13 33 7 33 -8z m58 -2 c2 -8 -5 -13 -17 -13 -12 0
-21 6 -21 16 0 18 31 15 38 -3z m46 11 c23 -9 20 -24 -4 -24 -11 0 -20 7 -20
15 0 17 2 18 24 9z"/>
<path d="M631 2038 c-8 -22 -5 -23 36 -26 53 -4 58 -1 43 27 -15 30 -68 29
-79 -1z"/>
<path d="M1433 1993 c-18 -7 -16 -38 2 -53 24 -20 65 3 65 35 0 21 -5 25 -27
24 -16 0 -34 -3 -40 -6z"/>
</g>
</svg>
